<svg xmlns="http://www.w3.org/2000/svg" width="349" height="515" viewBox="0 0 349 515">
    <defs>
        <linearGradient id="a" x1="50.003%" x2="50.003%" y1="193.462%" y2="2.93%">
            <stop offset="0%" stop-color="#E6405D"/>
            <stop offset="7%" stop-color="#EA5A6F"/>
            <stop offset="24%" stop-color="#F18D94"/>
            <stop offset="36%" stop-color="#F6ADAB"/>
            <stop offset="43%" stop-color="#F8B9B4"/>
        </linearGradient>
        <linearGradient id="b" x1="132.282%" x2="-33.493%" y1="127.297%" y2="-28.434%">
            <stop offset="12%" stop-color="#E6405D"/>
            <stop offset="16%" stop-color="#EB5F73"/>
            <stop offset="21%" stop-color="#EF7B87"/>
            <stop offset="26%" stop-color="#F29298"/>
            <stop offset="33%" stop-color="#F5A3A4"/>
            <stop offset="40%" stop-color="#F7B0AD"/>
            <stop offset="51%" stop-color="#F8B7B3"/>
            <stop offset="75%" stop-color="#F8B9B4"/>
        </linearGradient>
        <linearGradient id="c" x1="124.4%" x2="-17.134%" y1="135.175%" y2=".01%">
            <stop offset="0%" stop-color="#E6405D"/>
            <stop offset="55.003%" stop-color="#F7B2AF"/>
            <stop offset="100%" stop-color="#F8B9B4"/>
        </linearGradient>
    </defs>
    <g fill="none" fill-rule="evenodd">
        <path fill="#D84F55" fill-rule="nonzero" d="M0 0h349v515H0z"/>
        <path fill="#FFD77A" fill-rule="nonzero" d="M14.29 326.08c-3.31 3.74-4.65 6.33-3.45 9.6 2.79 2.29 7 1.53 8.75 3.08a24.21 24.21 0 0 1 3.14 3.67 14.91 14.91 0 0 1 2.72 6c.69 3.61.6 3.89 1.34 5.18 1.8 2.07 4.42 3.6 6.76 3.52l1.18 2.38s-2.95.71-7.74-5.55a.41.41 0 0 1 .05.09c-3.26-4-1.89-7.41-3.85-10.93a9.58 9.58 0 0 0-6.8-3.36 7.65 7.65 0 0 1-5.08-3.05l-.09-.13-.3-.42-.15-.21-.25-.41-.18-.31c0-.06-.07-.11-.1-.18a8.62 8.62 0 0 1 .92-9.85c3-3.73 3.42-5.29 2.68-7.45.02.08 4.16 4.19.45 8.33z"/>
        <path fill="#0B2139" d="M21.24 395h.42v28.85h-.42a.53.53 0 0 0-.53.53V451c0 .293.237.53.53.53h.53V515h169.82v-47.41h.84a1.06 1.06 0 0 0 1.06-1.07v-42.1a1.05 1.05 0 0 0-1.06-1.06h-.84v-88.29c-.01-10.48-8.412-19.02-18.89-19.2-24.287-.42-46.313-.627-66.08-.62-19.767.007-41.793.213-66.08.62-10.476.18-18.876 8.722-18.88 19.2v40.24h-.42a1.06 1.06 0 0 0-1.06 1.06V394c.032.562.497 1 1.06 1z"/>
        <path fill="#19335D" d="M189.39 515V339.14c0-7.43-.8-10-2.29-12.7a14.58 14.58 0 0 0-5.77-5.78c-2.72-1.49-5.27-2.28-12.69-2.28H45c-7.42 0-10 .79-12.69 2.28a14.58 14.58 0 0 0-5.77 5.78c-1.49 2.72-2.29 5.27-2.29 12.7V515h165.14z"/>
        <path fill="url(#a)" fill-rule="nonzero" d="M186.25 515V338.34c0-5.94-.63-8-1.83-10.14a11.53 11.53 0 0 0-4.54-4.54c-2.17-1.2-4.2-1.83-10.13-1.83H43.92c-5.93 0-8 .63-10.13 1.83a11.53 11.53 0 0 0-4.54 4.54c-1.19 2.18-1.83 4.2-1.83 10.14V515h158.83z"/>
        <path fill="#E28383" fill-rule="nonzero" d="M52.49 348.05l133.76-.05v93.56l-133.69.08a1.72 1.72 0 0 1-1.71-1.71l-.06-90.14a1.694 1.694 0 0 1 1.7-1.74z" opacity=".5"/>
        <path fill="#74C49C" fill-rule="nonzero" d="M88.77 383.11a8.15 8.15 0 1 1-9.13 9.14 8.17 8.17 0 0 1 9.13-9.14zM219.72 383a8.14 8.14 0 1 1-9.13 9.14 8.16 8.16 0 0 1 9.13-9.14zM130.16 400.5a23.75 23.75 0 0 0 14.29 14.26c21.05 7.57 40.5-11.91 32.91-32.95a23.82 23.82 0 0 0-14.29-14.27c-21.07-7.54-40.5 11.92-32.91 32.96z"/>
        <path fill="#69C39B" fill-rule="nonzero" d="M59.17 433.28l189.23-.11-.05-84.17-189.24.11.06 84.17zm3.43-66.36A14.88 14.88 0 0 0 77.47 352l152.53-.06c.006 8.214 6.666 14.87 14.88 14.87v48.58c-8.214.011-14.866 6.676-14.86 14.89l-152.53.08c-.006-8.2-6.65-14.849-14.85-14.86l-.04-48.58z"/>
        <path fill="#69C39B" fill-rule="nonzero" d="M253.11 436.16l-.06-90.16a1.69 1.69 0 0 0-1.7-1.71l-195.25.11c-.94.006-1.7.77-1.7 1.71l.06 90.14a1.72 1.72 0 0 0 1.72 1.75l195.22-.11a1.72 1.72 0 0 0 1.71-1.73zm-4.71-3l-189.23.11-.06-84.14 189.24-.13.05 84.16z"/>
        <path fill="#63AD8A" fill-rule="nonzero" d="M62.6 366.92v48.58a14.87 14.87 0 0 1 14.88 14.86l152.53-.08c-.006-8.214 6.646-14.879 14.86-14.89v-48.58c-8.21-.006-14.864-6.66-14.87-14.87L77.47 352a14.88 14.88 0 0 1-14.87 14.92zM219.72 383a8.14 8.14 0 1 1-9.13 9.14 8.16 8.16 0 0 1 9.13-9.14zm-56.65-15.5a23.82 23.82 0 0 1 14.29 14.27c7.59 21-11.86 40.52-32.91 32.95a23.75 23.75 0 0 1-14.29-14.26c-7.59-21 11.84-40.46 32.91-32.92v-.04zm-74.3 15.57a8.15 8.15 0 1 1-9.13 9.14 8.17 8.17 0 0 1 9.13-9.1v-.04z"/>
        <path fill="#FFD77A" fill-rule="nonzero" d="M214.47 467.53c1.66-1.23.91-5.06-1.67-8.56-2.58-3.5-6-5.35-7.69-4.12-1.69 1.23-.91 5 1.68 8.55 2.59 3.55 6.03 5.35 7.68 4.13z"/>
        <path fill="#6AC29B" fill-rule="nonzero" d="M196.78 331.9s1.83.62 7.62-1.55c2.94-1.1 5.06-3.72 6.66-7.26 1.6-3.54 3.06-7 6.87-8.5-5.34.59-9.94 2.54-11.83 4.76-1.89 2.22-2.22 4.2-3 5.84-.78 1.64-.6 5.12-6.32 6.71z"/>
        <path fill="url(#b)" fill-rule="nonzero" d="M203.37 157.44c.57 2.88-2.2 5.94-2.38 8.74-.18 2.8 2.14 6.28 1.23 9-.91 2.72-4.86 4-6.44 6.37s-1.26 6.49-3.42 8.38c-2.16 1.89-6.15 1-8.75 2.3-2.6 1.3-4.28 5-7.16 5.54s-5.93-2.19-8.73-2.38c-2.8-.19-6.29 2.14-9 1.23-2.71-.91-4-4.85-6.36-6.44-2.36-1.59-6.49-1.25-8.39-3.41-1.9-2.16-1-6.16-2.3-8.76-1.3-2.6-5-4.28-5.54-7.15s2.2-5.94 2.38-8.74c.18-2.8-2.14-6.28-1.22-9 .92-2.72 4.85-4 6.43-6.37s1.26-6.49 3.42-8.38c2.16-1.89 6.15-1 8.75-2.3 2.6-1.3 4.28-5 7.16-5.54s5.94 2.19 8.73 2.37c2.79.18 6.29-2.13 9-1.22 2.71.91 4 4.85 6.37 6.44 2.37 1.59 6.48 1.25 8.38 3.41 1.9 2.16 1 6.16 2.3 8.76 1.3 2.6 4.97 4.27 5.54 7.15z"/>
        <path fill="#E0817B" fill-rule="nonzero" d="M160.31 156.32a8.15 8.15 0 0 1 4.32 4.1 8.31 8.31 0 0 1 1.1 5.9 7.23 7.23 0 0 1-8.93 4.84 8.35 8.35 0 0 1-4.34-4.14 8.18 8.18 0 0 1-1.07-5.84 6.42 6.42 0 0 1 3.46-4.23 6.54 6.54 0 0 1 5.46-.63zm-5.92 5.54a5.82 5.82 0 0 0 .86 3.65 6 6 0 0 0 2.61 2.76 3.22 3.22 0 0 0 3-.16 3.31 3.31 0 0 0 1.84-2.49 5.94 5.94 0 0 0-.88-3.7 5.76 5.76 0 0 0-2.6-2.71 3.35 3.35 0 0 0-3.08.2 3.25 3.25 0 0 0-1.75 2.45zm18.9-14.86l-4.23 31.7-3.25 1.76 4.26-31.72 3.22-1.74zm9.27 9.19a8.19 8.19 0 0 1 4.32 4.1 8.31 8.31 0 0 1 1.1 5.9 7.23 7.23 0 0 1-8.93 4.84 8.35 8.35 0 0 1-4.34-4.14 8.17 8.17 0 0 1-1.07-5.84 6.42 6.42 0 0 1 3.46-4.23 6.54 6.54 0 0 1 5.46-.6v-.03zm-5.92 5.54a5.82 5.82 0 0 0 .86 3.65 6 6 0 0 0 2.61 2.76 3.22 3.22 0 0 0 3-.16 3.31 3.31 0 0 0 1.84-2.49 5.94 5.94 0 0 0-.88-3.7 5.81 5.81 0 0 0-2.6-2.71 3.32 3.32 0 0 0-3.08.21 3.24 3.24 0 0 0-1.75 2.47v-.03z"/>
        <circle cx="293.76" cy="143.84" r="5.91" fill="#AD4448" fill-rule="nonzero" opacity=".3"/>
        <circle cx="142.01" cy="232.12" r="4.17" fill="#AD4448" fill-rule="nonzero" opacity=".3"/>
        <path fill="#AD4448" fill-rule="nonzero" d="M228.24 175.92a1.25 1.25 0 0 1-.83-.21 1.29 1.29 0 0 1-.34-1.79c.77-1.13.59-2 .35-3.26a6 6 0 0 1 5.3-7.8 3.72 3.72 0 0 0 2.9-1.53c.77-1.12.59-2 .34-3.25a6 6 0 0 1 5.3-7.81c1.24-.22 2.14-.39 2.9-1.52a1.29 1.29 0 0 1 2.13 1.44 6.14 6.14 0 0 1-4.56 2.61c-1.24.23-2.13.39-2.9 1.52s-.59 2-.35 3.26a6 6 0 0 1-5.3 7.8 3.72 3.72 0 0 0-2.9 1.53c-.77 1.13-.59 2-.35 3.26a6.16 6.16 0 0 1-.74 5.2 1.26 1.26 0 0 1-.95.55zM167.62 268.96l4.98 6.48 8.16-.43-4.63 6.74 2.93 7.63-7.84-2.32-6.34 5.14-.22-8.17-6.85-4.45 7.7-2.73z" opacity=".3"/>
        <path fill="url(#c)" fill-rule="nonzero" d="M279.9 226.46c.57 2.87-2.2 5.93-2.38 8.73-.18 2.8 2.14 6.29 1.22 9-.92 2.71-4.85 4-6.43 6.36-1.58 2.36-1.26 6.49-3.42 8.39-2.16 1.9-6.15 1-8.75 2.3-2.6 1.3-4.28 5-7.16 5.54s-5.94-2.2-8.73-2.38c-2.79-.18-6.29 2.14-9 1.22-2.71-.92-4-4.85-6.37-6.43s-6.48-1.26-8.38-3.42c-1.9-2.16-1-6.15-2.3-8.75-1.3-2.6-5-4.28-5.54-7.16s2.2-5.94 2.38-8.73c.18-2.79-2.14-6.29-1.23-9 .91-2.71 4.85-4 6.44-6.37 1.59-2.37 1.26-6.48 3.41-8.38 2.15-1.9 6.16-1 8.76-2.3 2.6-1.3 4.28-5 7.16-5.54s5.93 2.2 8.73 2.38c2.8.18 6.29-2.14 9-1.23 2.71.91 4 4.86 6.36 6.44 2.36 1.58 6.49 1.26 8.38 3.42 1.89 2.16 1 6.15 2.31 8.75 1.31 2.6 4.96 4.28 5.54 7.16z"/>
        <path fill="#E0817B" fill-rule="nonzero" d="M236.71 229.81l-1.34 1.12 1.68 2a.86.86 0 0 0 1.22.11.88.88 0 0 0 .2-1.1l-.09-.12-1.67-2.01zm2.4 4.23a.87.87 0 0 0-.2 1.1l.09.13 1.11 1.33a.87.87 0 0 0 1.23.11.86.86 0 0 0 .2-1.09l-.09-.13-1.12-1.34a.86.86 0 0 0-1.22-.15v.04zm7.21-6.7a.71.71 0 0 0-.48.74v.14l.69 2.11-1.6 1.54a.68.68 0 0 0-.22.5.71.71 0 0 0 .56.69h2.36l1 2a.74.74 0 0 0 .42.36.69.69 0 0 0 .82-.31v-.13l.69-2.12 2.2-.3a.65.65 0 0 0 .47-.28.69.69 0 0 0-.05-.88l-.1-.09-1.8-1.31.4-2.18a.7.7 0 0 0-.13-.54.68.68 0 0 0-.85-.22l-.12.07-1.8 1.3-1.95-1.05a.75.75 0 0 0-.51-.04zm-4.14 10.38a.85.85 0 0 0-.2 1.09l.09.13 1.11 1.34a.88.88 0 0 0 1.23.11.89.89 0 0 0 .2-1.1l-.09-.13-1.12-1.33a.86.86 0 0 0-1.22-.11zm2.78 3.33a.89.89 0 0 0-.2 1.1l.09.13 1.68 2 1.33-1.11-1.67-2a.89.89 0 0 0-1.19-.12h-.04zm6.66-26a1.73 1.73 0 0 1 2.45.22l3.35 4a3.48 3.48 0 0 0 4.46 5.34l3.35 4a1.75 1.75 0 0 1-.22 2.45L241 251.2a1.75 1.75 0 0 1-2.45-.22l-3.34-4a3.48 3.48 0 1 0-4.46-5.34l-3.35-4a1.73 1.73 0 0 1 .22-2.45l24-20.14zm4 10.25a5.23 5.23 0 0 1-.48-6l-2.42-2.9-24.03 20.1 2.43 2.9a5.23 5.23 0 0 1 6.31 7.56l2.42 2.9 24-20.08-2.42-2.9a5.23 5.23 0 0 1-5.79-1.54l-.02-.04z"/>
        <path fill="#BB3A45" fill-rule="nonzero" d="M0 296.86c22.43-2 44.1-5.61 58.46-18C74.31 265.17 81.24 240.9 83.88 216c2.64-24.9 1-50.4-10.33-72.33s-32.4-40.32-54.44-42.08A53.79 53.79 0 0 0 0 103.77v193.09zM305.1 426.42c-19.42 13.71-35.33 26.24-49.3 44.22-10 12.79-19 28.38-22.41 44.36H349V402.29c-15.33 4.71-30.45 14.71-43.9 24.13z" opacity=".3"/>
    </g>
</svg>
